<?xml version="1.0" encoding="UTF-8" standalone="no"?>
<svg
   xmlns:dc="http://purl.org/dc/elements/1.1/"
   xmlns:cc="http://creativecommons.org/ns#"
   xmlns:rdf="http://www.w3.org/1999/02/22-rdf-syntax-ns#"
   xmlns:svg="http://www.w3.org/2000/svg"
   xmlns="http://www.w3.org/2000/svg"
   xmlns:sodipodi="http://sodipodi.sourceforge.net/DTD/sodipodi-0.dtd"
   xmlns:inkscape="http://www.inkscape.org/namespaces/inkscape"
   version="1.1"
   id="svg2"
   xml:space="preserve"
   width="140"
   height="140"
   viewBox="0 0 140 140.00001"
   sodipodi:docname="logo-FL-red.svg"
   inkscape:version="1.0.2-2 (e86c870879, 2021-01-15)"><metadata
     id="metadata8"><rdf:RDF><cc:Work
         rdf:about=""><dc:format>image/svg+xml</dc:format><dc:type
           rdf:resource="http://purl.org/dc/dcmitype/StillImage" /><dc:title></dc:title></cc:Work></rdf:RDF></metadata><defs
     id="defs6" /><sodipodi:namedview
     pagecolor="#ffffff"
     bordercolor="#666666"
     borderopacity="1"
     objecttolerance="10"
     gridtolerance="10"
     guidetolerance="10"
     inkscape:pageopacity="0"
     inkscape:pageshadow="2"
     inkscape:window-width="1920"
     inkscape:window-height="1009"
     id="namedview4"
     showgrid="false"
     fit-margin-top="0"
     fit-margin-left="0"
     fit-margin-right="0"
     fit-margin-bottom="0"
     inkscape:zoom="0.74750102"
     inkscape:cx="-115.46927"
     inkscape:cy="195.35708"
     inkscape:window-x="-8"
     inkscape:window-y="-8"
     inkscape:window-maximized="1"
     inkscape:current-layer="g12"
     inkscape:document-rotation="0"
     inkscape:pagecheckerboard="false" /><g
     id="g10"
     inkscape:groupmode="layer"
     inkscape:label="ink_ext_XXXXXX"
     transform="matrix(1.3333333,0,0,-1.3333333,-302.36266,706.77166)"><g
       id="g12"
       transform="scale(0.1)"><path
         d="m 3171.3,5044.4729 c 0,11.93 9.38,23.54 20.91,25.78 l 104.6,20.33 c 11.55,2.25 20.91,-5.71 20.91,-17.64 v -716.42 c 0,-11.93 -9.36,-23.53 -20.91,-25.77 l -409.4,-79.59 c -11.51,-2.23 -20.97,5.71 -20.97,17.64 v 108.56 c 0,11.94 9.46,23.55 20.97,25.79 l 273.4,53.14 c 6.3,1.23 10.49,6.37 10.49,12.91 v 575.27"
         style="fill:#e3005c;fill-opacity:1;fill-rule:nonzero;stroke:none"
         id="path14"
         inkscape:connector-curvature="0" /><path
         d="m 2414.14,4778.63 v -271.37 c 0,-11.94 -9.38,-23.54 -20.92,-25.79 l -104.56,-20.32 c -11.53,-2.24 -20.94,5.7 -20.94,17.65 v 716.4 c 0,11.93 9.41,23.54 20.94,25.79 l 408.6,79.42 c 11.52,2.24 20.92,-5.72 20.92,-17.66 v -108.54 c 0,-11.93 -9.4,-23.53 -20.92,-25.77 l -272.65,-52.99 c -6.27,-1.23 -10.47,-6.37 -10.47,-12.92 V 4952.3 c 0,-6.53 4.2,-10.05 10.47,-8.82 l 219.68,42.69 c 11.46,2.23 20.91,-5.7 20.91,-17.65 v -108.51 c 0,-11.98 -9.45,-23.57 -20.91,-25.8 l -219.68,-42.69 c -6.27,-1.22 -10.47,-6.39 -10.47,-12.89"
         style="fill:#e3005c;fill-opacity:1;fill-rule:nonzero;stroke:none"
         id="path16"
         inkscape:connector-curvature="0" /></g></g></svg>
