<svg xmlns="http://www.w3.org/2000/svg" fill="currentColor" class="img-sm" viewBox="0 0 16 16">
   <path
      d="m 1,14 c 0,0 -1,0 -1,-1 0,-1 1,-4 6,-4 5,0 6,3 6,4 0,1 -1,1 -1,1 z M 6,8 A 3,3 0 1 0 6,2 3,3 0 0 0 6,8 Z" />
   <g transform="matrix(1.1385034,0,0,1.1385034,-1.5542001,-0.99846884)">
      <path
         d="m 13.261719,5.1738281 c -0.01048,4.196e-4 -0.02083,7.316e-4 -0.03125,0.00195 -0.153504,0.015856 -0.294342,0.1259614 -0.345703,0.2714844 -0.05136,0.145523 -0.01189,0.3190377 0.09766,0.4277344 l 0.933594,0.9355469 H 11.09375 c -0.214709,-8.49e-4 -0.409466,0.1934938 -0.410156,0.4082031 6.9e-4,0.2147093 0.195447,0.4090521 0.410156,0.4082031 h 2.822266 L 12.982422,8.5625 a 0.13752541,0.13752541 0 0 0 -0.0059,0.00781 c -0.135013,0.1548527 -0.12574,0.4133217 0.01953,0.5585937 0.145272,0.1452721 0.403741,0.1545448 0.558594,0.019531 a 0.13752541,0.13752541 0 0 0 0.0078,-0.00586 l 1.634766,-1.6328125 c 0.153135,-0.1519137 0.153135,-0.4301175 0,-0.5820312 L 13.5625,5.296875 C 13.485542,5.2181779 13.375693,5.1729037 13.265625,5.1738281 a 0.13752541,0.13752541 0 0 0 -0.0039,0 z" />
   </g>
</svg>