<svg width="30" height="35" viewBox="0 0 30 35" fill="none" xmlns="http://www.w3.org/2000/svg">
<path d="M26.6677 4.16616H23.3331V0.833862H20.0008V4.16616H9.99922V0.833862H6.66693V4.16616H3.3323C1.4958 4.16616 0 5.66196 0 7.50079V30.8339C0 32.6727 1.4958 34.1662 3.3323 34.1662H26.6654C28.5042 34.1662 29.9977 32.6704 29.9977 30.8339V7.50079C30 5.66196 28.5065 4.16616 26.6677 4.16616ZM20.1805 31.7789C20.1198 32.374 19.6601 32.864 19.0907 32.9434C18.8783 32.9737 18.6637 32.9877 18.449 32.9877C18.2203 32.9877 17.9916 32.9714 17.7722 32.9387C17.2052 32.8524 16.7712 32.3623 16.7198 31.7463C16.6942 31.4453 16.6918 31.1256 16.7128 30.8012C16.7478 30.2435 17.0582 29.8211 17.5856 29.6111C17.6719 29.5761 17.6812 29.5691 17.6812 29.4477C17.6766 26.4258 17.6766 23.6792 17.6812 21.0493C17.6812 20.921 17.6486 20.8556 17.5412 20.767C16.6988 20.0762 15.8004 19.3272 14.6243 18.3424C14.4049 18.1581 14.2953 17.9014 14.3303 17.6564C14.3629 17.43 14.5123 17.2433 14.7386 17.143C15.077 16.996 15.3407 17.157 15.5297 17.3157C16.0851 17.78 16.6428 18.2444 17.2005 18.7088L17.9939 19.3692C18.0663 19.4275 18.1363 19.4882 18.2086 19.5489C18.3603 19.6772 18.5166 19.8125 18.6753 19.9316C18.932 20.1229 19.0487 20.3749 19.0464 20.7203C19.0394 21.7867 19.0417 22.8555 19.0417 23.9219V26.0898C19.0417 27.1912 19.0417 28.2926 19.037 29.3941C19.037 29.5247 19.037 29.5271 19.1607 29.5597C19.7254 29.7044 20.0965 30.1245 20.1758 30.7079C20.2201 31.0275 20.2201 31.3799 20.1805 31.7789ZM25.5966 18.8768L22.906 19.7729C22.7847 19.8126 22.6633 19.8546 22.5397 19.8966C22.2526 19.9946 21.9563 20.0972 21.6576 20.1836C21.5479 20.2163 21.5292 20.2303 21.5316 20.3656C21.5386 21.551 21.5386 22.7365 21.5362 23.9242V24.86C21.5362 25.3687 21.3939 25.5577 20.9039 25.7001L20.6612 25.7724C20.4652 25.8308 20.5352 25.7957 20.3391 25.8494C19.9494 25.9521 19.5761 25.7491 19.4687 25.371C19.3731 25.0257 19.5714 24.671 19.9331 24.5473C20.0755 24.4983 19.9541 24.5496 20.1011 24.5076L20.1735 24.4866V20.6876C20.0801 20.718 20.2995 20.6433 20.2085 20.6713C19.7908 20.7996 19.4127 20.6223 19.2914 20.2419C19.1724 19.8686 19.3731 19.5139 19.7768 19.3785C20.6775 19.0752 21.2726 18.8768 22.1756 18.5758L23.3237 18.1931L23.0414 18.0904C22.4253 17.8687 21.8303 17.654 21.2352 17.4417L20.9715 17.3483C19.0347 16.6553 17.0979 15.9645 15.1587 15.2785C15.0677 15.2458 14.965 15.2365 14.909 15.2575C12.4448 16.1326 9.98289 17.0123 7.521 17.892L6.68093 18.1931C6.90261 18.2677 7.11263 18.3378 7.32498 18.4101L8.39141 18.7648C10.5313 19.4789 12.6711 20.1929 14.8157 20.8976C14.9183 20.9326 15.0653 20.9303 15.1914 20.8953C15.4597 20.8206 15.3104 20.8813 15.5717 20.7926C15.7257 20.7413 15.8797 20.69 16.0338 20.6386C16.4538 20.5056 16.8225 20.676 16.9508 21.0633C17.0722 21.4274 16.8692 21.7914 16.4678 21.9291L16.1714 22.0317C15.7397 22.1811 15.7164 22.1834 15.266 22.3094C15.007 22.3818 14.72 22.3118 14.573 22.2628C13.3782 21.8731 12.1858 21.474 10.9933 21.0773L9.87321 20.704C9.85688 20.6993 9.84288 20.6946 9.82654 20.6876V24.4866L12.5288 25.2614C13.2988 25.4831 14.0689 25.7047 14.8413 25.9218C14.9347 25.9474 15.0537 25.9474 15.1517 25.9218C15.4574 25.8448 15.2544 25.8891 15.5577 25.8027C15.7444 25.7491 15.9287 25.6954 16.1154 25.6441C16.5028 25.5391 16.8668 25.7164 16.9835 26.0664C17.0442 26.2461 17.0302 26.4328 16.9508 26.5915C16.8668 26.7572 16.7105 26.8808 16.5121 26.9415C15.8657 27.1399 15.7747 27.1819 15.196 27.3382C15.14 27.3546 15.0817 27.3592 15.0233 27.3592C14.9137 27.3592 14.8063 27.3382 14.7223 27.3149C12.8228 26.7758 10.9256 26.2298 9.02847 25.6837C8.61777 25.5647 8.45909 25.3477 8.45909 24.9043V23.9873C8.45909 22.7948 8.45675 21.6024 8.46375 20.4099C8.46375 20.2396 8.44508 20.2093 8.3004 20.1649C7.36699 19.8662 6.4219 19.5512 5.50949 19.2455L4.5504 18.9258C4.49673 18.9071 4.44306 18.8885 4.38939 18.8698C4.06969 18.7578 3.89235 18.5244 3.88768 18.2141C3.88301 17.9014 4.05803 17.6634 4.37772 17.549C5.1968 17.255 6.01587 16.961 6.83494 16.6693L8.69711 16.0065C10.6713 15.3041 12.6455 14.5994 14.6173 13.8924C14.8787 13.799 15.112 13.799 15.378 13.8947C18.0639 14.8584 20.7452 15.8152 23.4264 16.7719L25.4916 17.507C25.5359 17.5233 25.5826 17.5397 25.6269 17.556C25.9443 17.6797 26.1147 17.9177 26.1053 18.2257C26.0983 18.5384 25.9186 18.7695 25.5966 18.8768ZM26.6677 12.5016H3.3323V9.16694H26.6654V12.5016H26.6677Z" fill="#0B1783"/>
</svg>
