<?xml version="1.0" encoding="UTF-8" standalone="no"?>
<svg
   xmlns:dc="http://purl.org/dc/elements/1.1/"
   xmlns:cc="http://creativecommons.org/ns#"
   xmlns:rdf="http://www.w3.org/1999/02/22-rdf-syntax-ns#"
   xmlns:svg="http://www.w3.org/2000/svg"
   xmlns="http://www.w3.org/2000/svg"
   xmlns:sodipodi="http://sodipodi.sourceforge.net/DTD/sodipodi-0.dtd"
   xmlns:inkscape="http://www.inkscape.org/namespaces/inkscape"
   width="32"
   height="32"
   viewBox="0 0 8.4666665 8.4666669"
   version="1.1"
   id="svg8"
   inkscape:version="1.0.2-2 (e86c870879, 2021-01-15)"
   sodipodi:docname="training.svg">
  <defs
     id="defs2" />
  <sodipodi:namedview
     id="base"
     pagecolor="#ffffff"
     bordercolor="#666666"
     borderopacity="1.0"
     inkscape:pageopacity="0.0"
     inkscape:pageshadow="2"
     inkscape:zoom="5.6"
     inkscape:cx="-32.196977"
     inkscape:cy="42.291053"
     inkscape:document-units="mm"
     inkscape:current-layer="g858"
     inkscape:document-rotation="0"
     showgrid="false"
     units="px"
     inkscape:window-width="1827"
     inkscape:window-height="1057"
     inkscape:window-x="85"
     inkscape:window-y="-8"
     inkscape:window-maximized="1" />
  <metadata
     id="metadata5">
    <rdf:RDF>
      <cc:Work
         rdf:about="">
        <dc:format>image/svg+xml</dc:format>
        <dc:type
           rdf:resource="http://purl.org/dc/dcmitype/StillImage" />
        <dc:title></dc:title>
      </cc:Work>
    </rdf:RDF>
  </metadata>
  <g
     inkscape:label="Calque 1"
     inkscape:groupmode="layer"
     id="layer1">
    <g
       style="fill:none"
       id="g858"
       transform="matrix(0.26458333,0,0,0.26458333,54.99584,104.22693)">
      <path
         d="m -184.39213,-365.86814 c -0.0874,0.85711 -0.74951,1.56284 -1.5696,1.6772 -0.30592,0.0436 -0.615,0.0638 -0.92422,0.0638 -0.32939,0 -0.65878,-0.0235 -0.97478,-0.0706 -0.81663,-0.1243 -1.44171,-0.83017 -1.51574,-1.71738 -0.0369,-0.43352 -0.0403,-0.89397 -0.0101,-1.3612 0.0504,-0.80323 0.49747,-1.4116 1.25707,-1.71406 0.12429,-0.0504 0.13769,-0.0605 0.13769,-0.23534 -0.007,-4.35235 -0.007,-8.30819 0,-12.09595 0,-0.18479 -0.0469,-0.27898 -0.20164,-0.40659 -1.21328,-0.99494 -2.50722,-2.0737 -4.20112,-3.49207 -0.31599,-0.26544 -0.47385,-0.63516 -0.42344,-0.98803 0.047,-0.32607 0.26213,-0.59497 0.58807,-0.73943 0.48738,-0.21172 0.86718,0.0202 1.13939,0.24873 0.79993,0.66872 1.60316,1.33758 2.4064,2.00644 l 1.14271,0.95115 c 0.10428,0.084 0.2051,0.1714 0.30923,0.25882 0.21849,0.18479 0.4436,0.37966 0.67217,0.55119 0.36972,0.27552 0.5378,0.63847 0.53448,1.13594 -0.0101,1.5359 -0.007,3.07526 -0.007,4.61117 v 3.12235 c 0,1.58632 0,3.17263 -0.007,4.75908 0,0.1881 0,0.19156 0.17816,0.23851 0.81332,0.20841 1.34781,0.81346 1.46202,1.65372 0.0638,0.46031 0.0638,0.96786 0.007,1.54252 z m 7.80064,-18.58248 -3.87519,1.29062 c -0.1747,0.0572 -0.34955,0.11767 -0.52757,0.17816 -0.4135,0.14115 -0.84025,0.28892 -1.27046,0.41336 -0.158,0.0471 -0.18493,0.0673 -0.18147,0.26213 0.0101,1.70729 0.0101,3.41473 0.007,5.12534 v 1.3478 c 0,0.73267 -0.20495,1.00488 -0.91068,1.20997 l -0.34956,0.10413 c -0.28229,0.0841 -0.18147,0.0336 -0.46391,0.1109 -0.56127,0.14792 -1.09892,-0.14446 -1.25361,-0.68902 -0.13769,-0.49733 0.14792,-1.00819 0.66886,-1.18635 0.2051,-0.0706 0.0302,0.003 0.24197,-0.0572 l 0.10427,-0.0303 v -5.47158 c -0.13452,0.0438 0.18148,-0.0638 0.0504,-0.0235 -0.6016,0.18479 -1.14616,-0.0706 -1.32087,-0.61845 -0.17139,-0.53765 0.11767,-1.04852 0.69911,-1.24353 1.29725,-0.43683 2.15435,-0.72258 3.45492,-1.1561 l 1.65359,-0.55119 -0.40658,-0.14791 c -0.88735,-0.31931 -1.74431,-0.62853 -2.60142,-0.9343 l -0.3798,-0.13452 c -2.78951,-0.99811 -5.57902,-1.99305 -8.37199,-2.98107 -0.13106,-0.0471 -0.27898,-0.0605 -0.35963,-0.0302 -3.54911,1.26038 -7.09493,2.52738 -10.64071,3.79439 l -1.20992,0.43366 c 0.31927,0.10745 0.62176,0.20841 0.9276,0.31254 l 1.53595,0.51087 c 3.08201,1.02849 6.1639,2.05684 9.2527,3.0718 0.14777,0.0504 0.35949,0.0471 0.54111,-0.003 0.38642,-0.10759 0.17139,-0.0202 0.54773,-0.14792 0.2218,-0.0739 0.4436,-0.14777 0.66555,-0.2218 0.60491,-0.19155 1.13594,0.0539 1.32073,0.61169 0.17484,0.5244 -0.11753,1.04866 -0.69565,1.24698 l -0.4269,0.14777 c -0.62176,0.21518 -0.65532,0.21849 -1.30402,0.39996 -0.37303,0.10428 -0.78639,0.004 -0.9981,-0.0671 -1.72084,-0.56127 -3.43821,-1.13608 -5.15573,-1.70743 l -1.61323,-0.53766 c -0.0235,-0.007 -0.0437,-0.0135 -0.0672,-0.0236 v 5.47158 l 3.89198,1.11592 c 1.109,0.3193 2.21815,0.63847 3.33062,0.95115 0.13452,0.0369 0.30591,0.0369 0.44706,0 0.44029,-0.1109 0.14791,-0.0471 0.58474,-0.17154 0.2689,-0.0772 0.53434,-0.15454 0.80324,-0.22842 0.55796,-0.15123 1.08222,0.10413 1.2503,0.60822 0.0874,0.25882 0.0673,0.52772 -0.0471,0.75629 -0.12098,0.23865 -0.3461,0.41667 -0.63185,0.50409 -0.93099,0.28575 -1.06205,0.34624 -1.89553,0.57136 -0.0807,0.0236 -0.16463,0.0303 -0.24874,0.0303 -0.15785,0 -0.31254,-0.0303 -0.43352,-0.0638 -2.73579,-0.77645 -5.46827,-1.56284 -8.20064,-2.34937 -0.59152,-0.17139 -0.82006,-0.48393 -0.82006,-1.12255 v -1.32072 c 0,-1.71752 -0.003,-3.4349 0.007,-5.15242 0,-0.24528 -0.0269,-0.28892 -0.23527,-0.35287 -1.34434,-0.43021 -2.70553,-0.8839 -4.01964,-1.32419 l -1.38135,-0.46045 c -0.0773,-0.0269 -0.1546,-0.0537 -0.2319,-0.0807 -0.46045,-0.16131 -0.71587,-0.49747 -0.72259,-0.94438 -0.007,-0.45038 0.24535,-0.79316 0.70578,-0.95793 1.1797,-0.42344 2.35938,-0.84687 3.53906,-1.267 l 2.68203,-0.95461 c 2.84336,-1.01165 5.68674,-2.0266 8.52666,-3.04487 0.37649,-0.13452 0.7125,-0.13452 1.09561,0.003 3.86842,1.38798 7.73021,2.76603 11.59186,4.14394 l 2.97444,1.05874 c 0.0638,0.0235 0.13107,0.0471 0.19487,0.0706 0.45714,0.17816 0.70256,0.52094 0.68902,0.96455 -0.0101,0.45037 -0.26889,0.78321 -0.73266,0.93776 z"
         fill="#0b1783"
         id="path847"
         sodipodi:nodetypes="ccsccccccccccccccccssccccccccccscscccccccscsccccccccccccccccssccccccccccccccsccsscccccscccccccccc"
         style="stroke-width:0.999998" />
    </g>
  </g>
</svg>
